<svg xmlns="http://www.w3.org/2000/svg" width="1280" height="760" viewBox="0 0 1280 760" fill="none">
  <rect width="1280" height="760" fill="#F7F1E8"/>
  <rect x="40" y="40" width="1200" height="680" rx="28" fill="#FFFDF8" stroke="#D9CDBA" stroke-width="2"/>
  <text x="90" y="95" fill="#8F3F1F" font-family="Segoe UI, sans-serif" font-size="28" font-weight="700">SprintBoard Infrastructure Diagram</text>

  <rect x="90" y="150" width="250" height="120" rx="24" fill="#F4D8C6" stroke="#A86540" stroke-width="2"/>
  <text x="115" y="195" fill="#17212B" font-family="Segoe UI, sans-serif" font-size="22" font-weight="700">Developer</text>
  <text x="115" y="227" fill="#17212B" font-family="Segoe UI, sans-serif" font-size="18">git push / pull request</text>

  <rect x="420" y="130" width="300" height="170" rx="24" fill="#F4EFC3" stroke="#A8922C" stroke-width="2"/>
  <text x="450" y="178" fill="#17212B" font-family="Segoe UI, sans-serif" font-size="24" font-weight="700">GitHub Actions</text>
  <text x="450" y="212" fill="#17212B" font-family="Segoe UI, sans-serif" font-size="18">pre-commit checks</text>
  <text x="450" y="238" fill="#17212B" font-family="Segoe UI, sans-serif" font-size="18">tests + webhook notifications</text>
  <text x="450" y="264" fill="#17212B" font-family="Segoe UI, sans-serif" font-size="18">build + push Docker image</text>

  <rect x="790" y="160" width="210" height="110" rx="24" fill="#D3E8D5" stroke="#4A7C59" stroke-width="2"/>
  <text x="822" y="205" fill="#17212B" font-family="Segoe UI, sans-serif" font-size="22" font-weight="700">Docker Hub</text>
  <text x="822" y="235" fill="#17212B" font-family="Segoe UI, sans-serif" font-size="17">versioned images</text>

  <rect x="1010" y="150" width="170" height="120" rx="24" fill="#E6EEF7" stroke="#5278A6" stroke-width="2"/>
  <text x="1036" y="205" fill="#17212B" font-family="Segoe UI, sans-serif" font-size="22" font-weight="700">Webhook</text>
  <text x="1038" y="235" fill="#17212B" font-family="Segoe UI, sans-serif" font-size="17">CI / CD alerts</text>

  <rect x="360" y="390" width="560" height="250" rx="28" fill="#FFF8EF" stroke="#D9CDBA" stroke-width="2"/>
  <text x="390" y="435" fill="#8F3F1F" font-family="Segoe UI, sans-serif" font-size="24" font-weight="700">Kubernetes Cluster</text>

  <rect x="390" y="470" width="190" height="130" rx="20" fill="#F4D8C6" stroke="#A86540" stroke-width="2"/>
  <text x="420" y="512" fill="#17212B" font-family="Segoe UI, sans-serif" font-size="22" font-weight="700">ArgoCD</text>
  <text x="420" y="542" fill="#17212B" font-family="Segoe UI, sans-serif" font-size="17">GitOps sync</text>
  <text x="420" y="567" fill="#17212B" font-family="Segoe UI, sans-serif" font-size="17">Helm release</text>

  <rect x="610" y="470" width="270" height="130" rx="20" fill="#D3E8D5" stroke="#4A7C59" stroke-width="2"/>
  <text x="640" y="512" fill="#17212B" font-family="Segoe UI, sans-serif" font-size="22" font-weight="700">SprintBoard App</text>
  <text x="640" y="542" fill="#17212B" font-family="Segoe UI, sans-serif" font-size="17">Ingress + Service + PVC</text>
  <text x="640" y="567" fill="#17212B" font-family="Segoe UI, sans-serif" font-size="17">healthz / metrics / logs</text>

  <rect x="930" y="390" width="230" height="250" rx="28" fill="#EEF5F2" stroke="#90B39A" stroke-width="2"/>
  <text x="960" y="435" fill="#4A7C59" font-family="Segoe UI, sans-serif" font-size="24" font-weight="700">Observability</text>
  <text x="960" y="485" fill="#17212B" font-family="Segoe UI, sans-serif" font-size="18">Prometheus</text>
  <text x="960" y="515" fill="#17212B" font-family="Segoe UI, sans-serif" font-size="18">Loki / Promtail</text>
  <text x="960" y="545" fill="#17212B" font-family="Segoe UI, sans-serif" font-size="18">Alertmanager</text>
  <text x="960" y="575" fill="#17212B" font-family="Segoe UI, sans-serif" font-size="18">Webhook alerts</text>

  <line x1="340" y1="210" x2="420" y2="210" stroke="#8F3F1F" stroke-width="4"/>
  <polygon points="420,210 404,202 404,218" fill="#8F3F1F"/>

  <line x1="720" y1="215" x2="790" y2="215" stroke="#8F3F1F" stroke-width="4"/>
  <polygon points="790,215 774,207 774,223" fill="#8F3F1F"/>

  <line x1="720" y1="250" x2="1010" y2="250" stroke="#8F3F1F" stroke-width="4"/>
  <polygon points="1010,250 994,242 994,258" fill="#8F3F1F"/>

  <line x1="560" y1="300" x2="485" y2="470" stroke="#8F3F1F" stroke-width="4"/>
  <polygon points="485,470 481,452 496,458" fill="#8F3F1F"/>

  <line x1="895" y1="270" x2="760" y2="470" stroke="#4A7C59" stroke-width="4"/>
  <polygon points="760,470 761,451 774,460" fill="#4A7C59"/>

  <line x1="580" y1="535" x2="610" y2="535" stroke="#4A7C59" stroke-width="4"/>
  <polygon points="610,535 594,527 594,543" fill="#4A7C59"/>

  <line x1="880" y1="535" x2="930" y2="535" stroke="#4A7C59" stroke-width="4"/>
  <polygon points="930,535 914,527 914,543" fill="#4A7C59"/>

  <line x1="1045" y1="390" x2="1095" y2="270" stroke="#5278A6" stroke-width="4"/>
  <polygon points="1095,270 1081,283 1098,288" fill="#5278A6"/>

  <text x="87" y="682" fill="#5E6A78" font-family="Segoe UI, sans-serif" font-size="18">
    Terraform provisions namespaces, registry secret, ArgoCD, monitoring stack and alert routing.
  </text>
</svg>
